# xmcd CD database file
#
# Track frame offsets:
#	150
#	15215
#	39388
#	57208
#	71283
#	92928
#	109135
#	141298
#	159325
#
# Disc length: 2454 seconds
#
# Revision: 0
# Processed by: cddbd v1.5.1PL2 Copyright (c) Steve Scherf et al.
# Submitted via: CDex 1.51
#
DISCID=6a099409
DTITLE=Junior Cline and the Recliners - Boys' Night Out
DYEAR=1994
DGENRE=Blues
TTITLE0=Boys' Night Out
TTITLE1=Sha La La
TTITLE2=Who's Making Love To Your Old Lady
TTITLE3=Be Young, Be Foolish, Be Happy
TTITLE4=Life Is A Groove
TTITLE5=Lay Around and Love On You
TTITLE6=Tupelo Honey
TTITLE7=Baby Workout
TTITLE8=Doggin' Me Around
EXTD=YEAR: 1994
EXTT0=
EXTT1=
EXTT2=
EXTT3=
EXTT4=
EXTT5=
EXTT6=
EXTT7=
EXTT8=
PLAYORDER=
